HIERARCHY
ROOT hip
{
  OFFSET 0 0 0
  CHANNELS 6 Xposition Yposition Zposition Zrotation Yrotation Xrotation
  JOINT abdomen
  {
    OFFSET 0 20.6881 -0.73152
    CHANNELS 3 Zrotation Xrotation Yrotation
    JOINT chest
    {
      OFFSET 0 11.7043 -0.48768
      CHANNELS 3 Zrotation Xrotation Yrotation
      JOINT neck
      {
        OFFSET 0 22.1894 -2.19456
        CHANNELS 3 Zrotation Xrotation Yrotation
        JOINT head
        {
          OFFSET -0.24384 7.07133 1.2192
          CHANNELS 3 Zrotation Xrotation Yrotation
          JOINT leftEye
          {
            OFFSET 4.14528 8.04674 8.04672
            CHANNELS 3 Zrotation Xrotation Yrotation
            End Site
            {
              OFFSET 1 0 0
            }
          }
          JOINT rightEye
          {
            OFFSET -3.6576 8.04674 8.04672
            CHANNELS 3 Zrotation Xrotation Yrotation
            End Site
            {
              OFFSET 1 0 0
            }
          }
        }
      }
      JOINT rCollar
      {
        OFFSET -2.68224 19.2634 -4.8768
        CHANNELS 3 Zrotation Xrotation Yrotation
        JOINT rShldr
        {
          OFFSET -8.77824 -1.95073 1.46304
          CHANNELS 3 Zrotation Xrotation Yrotation
          JOINT rForeArm
          {
            OFFSET -28.1742 -1.7115 0.48768
            CHANNELS 3 Zrotation Xrotation Yrotation
            JOINT rHand
            {
              OFFSET -22.5879 0.773209 7.07136
              CHANNELS 3 Zrotation Xrotation Yrotation
              JOINT rThumb1
              {
                OFFSET -1.2192 -0.487915 3.41376
                CHANNELS 3 Zrotation Xrotation Yrotation
                JOINT rThumb2
                {
                  OFFSET -3.37035 -0.52449 3.41376
                  CHANNELS 3 Zrotation Xrotation Yrotation
                  End Site
                  {
                    OFFSET -1.78271 -1.18214 1.43049
                  }
                }
              }
              JOINT rIndex1
              {
                OFFSET -7.75947 0.938293 5.60832
                CHANNELS 3 Zrotation Xrotation Yrotation
                JOINT rIndex2
                {
                  OFFSET -2.54057 -0.884171 1.56538
                  CHANNELS 3 Zrotation Xrotation Yrotation
                  End Site
                  {
                    OFFSET -1.62519 -0.234802 1.16502
                  }
                }
              }
              JOINT rMid1
              {
                OFFSET -8.24714 1.18213 3.41376
                CHANNELS 3 Zrotation Xrotation Yrotation
                JOINT rMid2
                {
                  OFFSET -3.10165 -0.590103 1.0647
                  CHANNELS 3 Zrotation Xrotation Yrotation
                  End Site
                  {
                    OFFSET -2.48547 -0.328903 0.83742
                  }
                }
              }
              JOINT rRing1
              {
                OFFSET -8.82822 0.546677 1.51678
                CHANNELS 3 Zrotation Xrotation Yrotation
                JOINT rRing2
                {
                  OFFSET -2.60934 -0.819778 -0.0198488
                  CHANNELS 3 Zrotation Xrotation Yrotation
                  End Site
                  {
                    OFFSET -2.33842 -0.294052 0.168128
                  }
                }
              }
              JOINT rPinky1
              {
                OFFSET -8.27202 -0.0477905 -0.4584
                CHANNELS 3 Zrotation Xrotation Yrotation
                JOINT rPinky2
                {
                  OFFSET -1.82734 -0.647385 -0.700984
                  CHANNELS 3 Zrotation Xrotation Yrotation
                  End Site
                  {
                    OFFSET -1.69225 -0.51767 -0.607171
                  }
                }
              }
            }
          }
        }
      }
      JOINT lCollar
      {
        OFFSET 2.68224 19.2634 -4.8768
        CHANNELS 3 Zrotation Xrotation Yrotation
        JOINT lShldr
        {
          OFFSET 8.77824 -1.95073 1.46304
          CHANNELS 3 Zrotation Xrotation Yrotation
          JOINT lForeArm
          {
            OFFSET 28.1742 -1.7115 0.48768
            CHANNELS 3 Zrotation Xrotation Yrotation
            JOINT lHand
            {
              OFFSET 22.5879 0.773209 7.07136
              CHANNELS 3 Zrotation Xrotation Yrotation
              JOINT lThumb1
              {
                OFFSET 1.2192 -0.487915 3.41376
                CHANNELS 3 Zrotation Xrotation Yrotation
                JOINT lThumb2
                {
                  OFFSET 3.37035 -0.52449 3.41376
                  CHANNELS 3 Zrotation Xrotation Yrotation
                  End Site
                  {
                    OFFSET 1.78271 -1.18214 1.43049
                  }
                }
              }
              JOINT lIndex1
              {
                OFFSET 7.75947 0.938293 5.60832
                CHANNELS 3 Zrotation Xrotation Yrotation
                JOINT lIndex2
                {
                  OFFSET 2.54057 -0.884171 1.56538
                  CHANNELS 3 Zrotation Xrotation Yrotation
                  End Site
                  {
                    OFFSET 1.62519 -0.234802 1.16502
                  }
                }
              }
              JOINT lMid1
              {
                OFFSET 8.24714 1.18213 3.41376
                CHANNELS 3 Zrotation Xrotation Yrotation
                JOINT lMid2
                {
                  OFFSET 3.10165 -0.590103 1.0647
                  CHANNELS 3 Zrotation Xrotation Yrotation
                  End Site
                  {
                    OFFSET 2.48547 -0.328903 0.83742
                  }
                }
              }
              JOINT lRing1
              {
                OFFSET 8.82822 0.546677 1.51678
                CHANNELS 3 Zrotation Xrotation Yrotation
                JOINT lRing2
                {
                  OFFSET 2.60934 -0.819778 -0.0198488
                  CHANNELS 3 Zrotation Xrotation Yrotation
                  End Site
                  {
                    OFFSET 2.33842 -0.294052 0.168128
                  }
                }
              }
              JOINT lPinky1
              {
                OFFSET 8.27202 -0.0477905 -0.4584
                CHANNELS 3 Zrotation Xrotation Yrotation
                JOINT lPinky2
                {
                  OFFSET 1.82734 -0.647385 -0.700984
                  CHANNELS 3 Zrotation Xrotation Yrotation
                  End Site
                  {
                    OFFSET 1.69225 -0.51767 -0.607171
                  }
                }
              }
            }
          }
        }
      }
    }
  }
  JOINT rButtock
  {
    OFFSET -8.77824 4.35084 1.2192
    CHANNELS 3 Zrotation Xrotation Yrotation
    JOINT rThigh
    {
      OFFSET 0 -1.70687 -2.19456
      CHANNELS 3 Zrotation Xrotation Yrotation
      JOINT rShin
      {
        OFFSET 0 -36.8199 0.73152
        CHANNELS 3 Zrotation Xrotation Yrotation
        JOINT rFoot
        {
          OFFSET 0.73152 -45.1104 -5.12064
          CHANNELS 3 Zrotation Xrotation Yrotation
          End Site
          {
            OFFSET -1.1221 -3.69964 12.103
          }
        }
      }
    }
  }
  JOINT lButtock
  {
    OFFSET 8.77824 4.35084 1.2192
    CHANNELS 3 Zrotation Xrotation Yrotation
    JOINT lThigh
    {
      OFFSET 0 -1.70687 -2.19456
      CHANNELS 3 Zrotation Xrotation Yrotation
      JOINT lShin
      {
        OFFSET 0 -36.8199 0.73152
        CHANNELS 3 Zrotation Xrotation Yrotation
        JOINT lFoot
        {
          OFFSET -0.73152 -45.1104 -5.12064
          CHANNELS 3 Zrotation Xrotation Yrotation
          End Site
          {
            OFFSET 1.1221 -3.69964 12.103
          }
        }
      }
    }
  }
}
MOTION
Frames:	4
Frame Time:	0.03333
0.11315915907418625 37.89646108145325 0.08193296159170278 -22.958986282348633 52.39359664916992 -20.17003631591797 10.578300476074219 13.749399185180664 11.82499885559082 1.32548987865448 -8.315799713134766 3.7691798210144043 1.782159686088562 12.227300643920898 10.9266996383667 -1.0479899644851685 -20.70789909362793 21.273799896240234 -0.0 0.0 -0.0 -0.0 0.0 -0.0 -7.633330816395056e-14 1.0177774421860075e-12 -1.2722218027325094e-12 92.87109375 33.49710464477539 -46.615596771240234 -22.318199157714844 -51.30829620361328 108.23599243164062 -162.12298583984375 -35.77619934082031 -174.18800354003906 -2.062322534968075e-09 9.039263226817695e-10 1.7873317270655775e-09 -3.450456365072796e-09 1.5695146293737139e-09 2.636539653266823e-09 -2.062322534968075e-09 9.039263226817695e-10 1.7873189595007943e-09 7.7309088706970215 5.474880218505859 0.41731396317481995 -2.062322534968075e-09 9.039263226817695e-10 1.7873317270655775e-09 2.9055399894714355 0.9651829600334167 0.10290198773145676 -2.0623096563809895e-09 9.039263226817695e-10 1.7873317270655775e-09 10.27859878540039 0.73180091381073 0.025912299752235413 -2.062322534968075e-09 9.039263226817695e-10 1.7873380553368179e-09 2.2216696739196777 -0.7334870100021362 -0.2089199721813202 -7.633330816395056e-14 1.0177774421860075e-12 -1.2722218027325094e-12 -84.5784912109375 -13.904099464416504 -88.0586929321289 4.754149436950684 -1.5169099569320679 -8.269709587097168 64.05780029296875 81.58821105957031 -71.87539672851562 -8.47498160538862e-09 -2.81695355930367e-09 1.8160012382750779e-09 -1.4278196402983667e-08 -4.663634367574332e-09 3.692108618835732e-09 -8.47498160538862e-09 -2.81695355930367e-09 1.8160012382750779e-09 -7.7309088706970215 5.474880218505859 -0.41731396317481995 -8.47498160538862e-09 -2.81695355930367e-09 1.8160012382750779e-09 -2.9055399894714355 0.9651829600334167 -0.10290198773145676 -8.47498160538862e-09 -2.81695355930367e-09 1.8160012382750779e-09 -10.27859878540039 0.73180091381073 -0.025912299752235413 -8.474969170890745e-09 -2.81695355930367e-09 1.8159884707102947e-09 -2.2216696739196777 -0.7334870100021362 0.2089199721813202 -0.0 0.0 -0.0 -2.7500498294830322 -1.340519905090332 -4.624239921569824 -0.3465460240840912 47.28019714355469 1.7638299465179443 -14.527097702026367 -15.505998611450195 -32.123294830322266 -0.0 0.0 -0.0 63.867095947265625 -48.19719696044922 50.248802185058594 2.1492199897766113 69.814697265625 -2.2071399688720703 -0.8548558354377747 -1.38142991065979 -8.970939636230469
0.22861015343981592 37.84025203967863 0.13636395304693766 -23.247987747192383 52.50899887084961 -20.159982681274414 10.589098930358887 13.711699485778809 12.192299842834473 1.1600699424743652 -8.366780281066895 3.8609700202941895 2.0176994800567627 12.570000648498535 11.69269847869873 -1.5880593061447144 -21.10809898376465 22.671398162841797 -0.0 0.0 -0.0 -0.0 0.0 -0.0 -6.361109013662547e-14 1.0177774421860075e-12 -1.1386385541031774e-12 94.02169799804688 33.512901306152344 -47.09429931640625 -22.35899543762207 -51.266902923583984 108.12299346923828 -161.42398071289062 -40.68000030517578 -173.0609893798828 -2.2818316125494675e-09 1.1057261772862148e-09 1.0919225523764453e-09 -3.7559675369891465e-09 1.889758349804538e-09 1.493861923052009e-09 -2.2818316125494675e-09 1.1057261772862148e-09 1.0919097848116621e-09 7.7309088706970215 5.474880218505859 0.41731396317481995 -2.2818316125494675e-09 1.1057261772862148e-09 1.0919225523764453e-09 2.9055399894714355 0.9651829600334167 0.10290198773145676 -2.2818316125494675e-09 1.1057261772862148e-09 1.0919225523764453e-09 10.27859878540039 0.73180091381073 0.025912299752235413 -2.2818316125494675e-09 1.1057261772862148e-09 1.0919416482124689e-09 2.2216696739196777 -0.7334870100021362 -0.2089199721813202 -6.361109013662547e-14 1.0177774421860075e-12 -1.1386385541031774e-12 -85.13569641113281 -13.464799880981445 -88.35589599609375 4.8257598876953125 -1.5457299947738647 -8.39635944366455 70.49249267578125 81.83229064941406 -78.37769317626953 -7.069367757850387e-09 -2.3069961496702263e-09 3.30906169132561e-09 -1.1779298425551588e-08 -3.7216940640405483e-09 6.132942598213731e-09 -7.0693801923482624e-09 -2.3069961496702263e-09 3.309067908574548e-09 -7.7309088706970215 5.474880218505859 -0.41731396317481995 -7.069367757850387e-09 -2.3069961496702263e-09 3.30906169132561e-09 -2.9055399894714355 0.9651829600334167 -0.10290198773145676 -7.0693801923482624e-09 -2.3069961496702263e-09 3.30906169132561e-09 -10.27859878540039 0.73180091381073 -0.025912299752235413 -7.069367757850387e-09 -2.3069961496702263e-09 3.30906169132561e-09 -2.2216696739196777 -0.7334870100021362 0.2089199721813202 -0.0 0.0 -0.0 -2.7616899013519287 -1.2017298936843872 -4.742549419403076 -0.3372330665588379 46.98859405517578 1.7631897926330566 -14.537798881530762 -15.454300880432129 -32.24399948120117 -0.0 0.0 -0.0 64.17979431152344 -48.50630187988281 50.51749801635742 2.204429864883423 70.1803970336914 -2.2677197456359863 -0.8886149525642395 -1.674399971961975 -8.869169235229492
0.3228617080451805 37.77997903534786 0.23262086186478856 -23.2709903717041 52.75349807739258 -19.950048446655273 10.647798538208008 13.709599494934082 12.528499603271484 0.9841709733009338 -8.40304946899414 3.9457995891571045 2.200089693069458 12.871500015258789 12.372099876403809 -2.0340394973754883 -21.372100830078125 23.917299270629883 -0.0 0.0 -0.0 -0.0 0.0 -0.0 -1.1449996224592585e-13 1.1958884403584502e-12 -5.724998383346835e-13 95.12659454345703 33.609798431396484 -47.53169631958008 -22.413103103637695 -51.21189880371094 107.9729995727539 -160.5649871826172 -45.41179656982422 -171.80299377441406 -1.6948283887430193e-09 1.0297744879039783e-09 -2.3049478992120953e-10 -2.7088529197527578e-09 1.710540376009817e-09 -5.708332140308414e-10 -1.6948283887430193e-09 1.0297744879039783e-09 -2.3049478992120953e-10 7.7309088706970215 5.474880218505859 0.41731396317481995 -1.6948283887430193e-09 1.0297744879039783e-09 -2.3048842001660574e-10 2.9055399894714355 0.9651829600334167 0.10290198773145676 -1.6948157322005386e-09 1.0297744879039783e-09 -2.3048842001660574e-10 10.27859878540039 0.73180091381073 0.025912299752235413 -1.6948283887430193e-09 1.0297744879039783e-09 -2.3047570796297379e-10 2.2216696739196777 -0.7334870100021362 -0.2089199721813202 -1.1449996224592585e-13 1.1958884403584502e-12 -5.724998383346835e-13 -84.8262939453125 -13.07859992980957 -88.48589324951172 4.916909694671631 -1.5825200080871582 -8.557849884033203 70.37989807128906 81.83150482177734 -78.26409149169922 -2.861404890808217e-09 -1.1940310962188505e-09 3.5642120366219388e-09 -4.603966985428087e-09 -1.7645715999492495e-09 6.264661678301309e-09 -2.861404890808217e-09 -1.1940310962188505e-09 3.5642184759154816e-09 -7.7309088706970215 5.474880218505859 -0.41731396317481995 -2.861404890808217e-09 -1.1940310962188505e-09 3.5642120366219388e-09 -2.9055399894714355 0.9651829600334167 -0.10290198773145676 -2.861404890808217e-09 -1.1940310962188505e-09 3.5642120366219388e-09 -10.27859878540039 0.73180091381073 -0.025912299752235413 -2.861404890808217e-09 -1.1940310962188505e-09 3.5642120366219388e-09 -2.2216696739196777 -0.7334870100021362 0.2089199721813202 -0.0 0.0 -0.0 -2.6914496421813965 -0.9899929761886597 -4.822569847106934 -0.3281208276748657 46.690399169921875 1.7614097595214844 -14.532696723937988 -15.293001174926758 -32.45170211791992 -0.0 0.0 -0.0 64.5105972290039 -48.80099868774414 50.72939682006836 2.2596096992492676 70.53399658203125 -2.3286499977111816 -0.9193809628486633 -1.9541600942611694 -8.769780158996582
0.42427523626361907 37.72760855988678 0.34492059104231676 -23.70099449157715 52.90559768676758 -20.19003677368164 10.904998779296875 13.835199356079102 12.740499496459961 0.8115359544754028 -8.456589698791504 4.007499694824219 2.3161699771881104 13.144198417663574 12.910599708557129 -2.409820318222046 -21.466398239135742 24.90129852294922 -0.0 0.0 -0.0 -0.0 0.0 -0.0 -3.3077766871045244e-13 2.289999353338734e-12 2.5444436054650188e-14 96.04179382324219 33.76620101928711 -47.90950012207031 -22.47699737548828 -51.146297454833984 107.79499053955078 -159.47598266601562 -50.07649612426758 -170.3319854736328 -2.405516896786253e-10 2.958806255559665e-10 -1.3317299485393619e-09 -2.3375804070191464e-10 3.319099439735851e-10 -2.2614123906805617e-09 -2.405516896786253e-10 2.958806255559665e-10 -1.3317299485393619e-09 7.7309088706970215 5.474880218505859 0.41731396317481995 -2.405516896786253e-10 2.958806255559665e-10 -1.3317172919968812e-09 2.9055399894714355 0.9651829600334167 0.10290198773145676 -2.405516896786253e-10 2.958806255559665e-10 -1.3317172919968812e-09 10.27859878540039 0.73180091381073 0.025912299752235413 -2.405516896786253e-10 2.958806255559665e-10 -1.3317172919968812e-09 2.2216696739196777 -0.7334870100021362 -0.2089199721813202 -3.3077766871045244e-13 2.289999353338734e-12 2.5444436054650188e-14 -82.01899719238281 -12.692500114440918 -88.37629699707031 4.990119934082031 -1.6123501062393188 -8.687509536743164 53.0723991394043 80.86119842529297 -60.761497497558594 1.3045362567964958e-09 -5.631998756250312e-10 2.742089666440961e-09 2.4163944178923202e-09 -5.940258285264122e-10 4.569337352933189e-09 1.3045362567964958e-09 -5.631998756250312e-10 2.742102322983442e-09 -7.7309088706970215 5.474880218505859 -0.41731396317481995 1.3045362567964958e-09 -5.631998756250312e-10 2.742089666440961e-09 -2.9055399894714355 0.9651829600334167 -0.10290198773145676 1.3045362567964958e-09 -5.631998756250312e-10 2.742089666440961e-09 -10.27859878540039 0.73180091381073 -0.025912299752235413 1.3045362567964958e-09 -5.631998756250312e-10 2.7420770098984804e-09 -2.2216696739196777 -0.7334870100021362 0.2089199721813202 -0.0 0.0 -0.0 -2.4387097358703613 -0.6320289373397827 -4.861080169677734 -0.3186129629611969 46.38309860229492 1.7607898712158203 -14.516899108886719 -15.174498558044434 -32.599098205566406 -0.0 0.0 -0.0 64.9595947265625 -49.00689697265625 50.94499969482422 2.313429355621338 70.87100219726562 -2.3901498317718506 -0.9431669116020203 -2.256969928741455 -8.609929084777832
